<?xml version="1.0" encoding="utf-8"?>
<!-- Generator: Adobe Illustrator 23.0.3, SVG Export Plug-In . SVG Version: 6.00 Build 0)  -->
<svg version="1.1" id="Layer_1" xmlns="http://www.w3.org/2000/svg" xmlns:xlink="http://www.w3.org/1999/xlink" x="0px" y="0px"
	 viewBox="0 0 494.86 208.11" style="enable-background:new 0 0 494.86 208.11;" xml:space="preserve">
<style type="text/css">
	.st0{fill:#00A79D;}
	.st1{stroke:#FFFFFF;stroke-width:6;stroke-miterlimit:10;}
	.st2{fill:#FFFFFF;}
	.st3{fill:none;stroke:#FFFFFF;stroke-width:6;stroke-miterlimit:10;}
</style>
<path class="st0" d="M472.12,208.11H22.75C10.18,208.11,0,197.92,0,185.36V22.75C0,10.18,10.18,0,22.75,0h449.37
	c12.56,0,22.75,10.18,22.75,22.75v162.62C494.86,197.92,484.68,208.11,472.12,208.11z"/>
<polygon class="st1" points="48.48,72.23 48.48,144.55 111.12,180.72 173.75,144.55 173.75,72.23 111.12,36.07 "/>
<path class="st2" d="M111.51,74.06c15.26,0.11,27.94,11.34,28.98,25.15c0.44,5.83-0.61,11.66-0.09,17.56
	c0.49,5.61-4.06,10.49-10.46,12.34c-2.06,0.59-2.93,1.35-2.62,3.38c0.19,1.26,0.14,2.58,0.01,3.86c-0.34,3.42-2.4,5.52-6.04,5.61
	c-6.87,0.17-13.75,0.12-20.62,0.02c-4.03-0.06-6.43-2.48-6.26-6.55c0.15-3.52-0.01-5.82-4.67-7.19c-6.73-1.99-10.02-9.19-8.28-15.85
	c0.52-1.97,0.46-3.69,0.02-5.63c-3.08-13.65,6.79-28.33,21.24-31.97c2.79-0.7,4.69-0.37,6.78,1.75c5.19,5.24,5.33,5.12-0.12,10.23
	c-1.94,1.82-3.88,3.66-5.83,5.47c-1,0.93-1.51,1.98-0.29,2.97c1.01,0.82,2.04,0.36,2.88-0.49c0.37-0.38,0.86-0.68,1.16-1.09
	c2.35-3.22,4.67-3.31,7.06-0.03c0.46,0.63,1.08,1.2,1.76,1.61c0.83,0.51,1.86,0.71,2.63-0.1c0.76-0.79,0.63-1.89-0.19-2.42
	c-5.15-3.28-5.09-6.35-0.02-9.71c1.39-0.92,0.57-2.31-0.57-3.29C116.06,78.05,114.17,76.39,111.51,74.06z M95.89,123.39
	c4.27,0.07,8.15-3.43,8.3-7.48c0.15-3.98-3.54-7.68-7.87-7.89c-4.39-0.21-8.5,3.5-8.51,7.68C87.8,119.72,91.58,123.32,95.89,123.39z
	 M133.88,115.68c-0.02-4.03-3.82-7.61-8.11-7.66c-4.28-0.05-8.15,3.47-8.27,7.52c-0.13,4.15,3.89,7.94,8.32,7.85
	C130.13,123.31,133.9,119.7,133.88,115.68z M113.71,124.88c-0.63-2.04-1.52-3.75-3.07-5.47c-1,2.01-2.29,3.47-2.56,5.47
	C110.05,124.88,111.79,124.88,113.71,124.88z"/>
<line class="st3" x1="48.48" y1="72.23" x2="111.23" y2="108.34"/>
<line class="st3" x1="173.75" y1="72.23" x2="111.23" y2="108.34"/>
<line class="st3" x1="111.12" y1="180.72" x2="111.23" y2="108.34"/>
<g id="XMLID_6_">
	<g>
		<path d="M274.46,68.44v71.22c0,4.02-2.7,7.46-8.09,10.34c-2.7,1.44-5.68,2.51-8.93,3.23l-0.4-2.22c5.47-2.19,8.21-5.21,8.21-9.04
			V66.2c0-3.88-2.74-6.89-8.21-9.04l0.4-2.29c3.25,0.72,6.23,1.79,8.93,3.23C271.76,60.98,274.46,64.42,274.46,68.44z"/>
		<path class="st2" d="M265.25,66.2v75.77c0,3.83-2.74,6.85-8.21,9.04c2.4-1.77,3.6-4.11,3.6-7V64.17c0-2.95-1.2-5.28-3.6-7.01
			C262.51,59.31,265.25,62.32,265.25,66.2z"/>
		<path d="M260.64,64.17v79.84c0,2.89-1.2,5.23-3.6,7l0.4,2.22c-3.26,0.72-6.8,1.08-10.62,1.08v-2.59c2.54,0,4.71-0.57,6.51-1.69
			c1.8-1.12,2.7-2.47,2.7-4.06V62.13c0-1.58-0.9-2.94-2.7-4.06c-1.8-1.12-3.97-1.68-6.51-1.68v-2.6c3.82,0,7.36,0.36,10.62,1.08
			l-0.4,2.29C259.44,58.89,260.64,61.22,260.64,64.17z"/>
		<polygon points="246.82,151.72 246.82,154.31 225.01,154.31 225.01,151.72 229.62,151.72 229.62,56.39 229.62,53.79 246.82,53.79 
			246.82,56.39 238.84,56.39 238.84,151.72 		"/>
		<rect x="225.01" y="56.39" class="st2" width="4.61" height="95.33"/>
		<polygon points="229.62,53.79 229.62,56.39 225.01,56.39 225.01,151.72 225.01,154.31 214.67,154.31 214.67,151.72 220.41,151.72 
			220.41,56.39 214.67,56.39 214.67,53.79 		"/>
	</g>
</g>
<g id="XMLID_5_">
	<g>
		<polygon points="363.35,151.72 363.35,154.31 343.8,154.31 343.8,151.72 348.41,151.72 348.41,56.39 348.41,53.79 363.35,53.79 
			363.35,56.39 357.62,56.39 357.62,151.72 		"/>
		<rect x="343.8" y="56.39" class="st2" width="4.61" height="95.33"/>
		<polygon points="348.41,53.79 348.41,56.39 343.8,56.39 343.8,151.72 343.8,154.31 333.46,154.31 333.46,151.72 339.19,151.72 
			339.19,83.23 326.27,154.31 321.44,154.31 321.44,151.72 300.31,56.39 300.31,53.79 309.3,53.79 325.14,132.09 338.97,53.79 		"/>
		<polygon points="321.44,151.72 321.44,154.31 311.55,154.31 296.37,83.23 296.37,151.72 302.11,151.72 302.11,154.31 
			284.91,154.31 284.91,151.72 290.64,151.72 290.64,56.39 284.91,56.39 284.91,53.79 300.31,53.79 300.31,56.39 295.25,56.39 
			316.38,151.72 		"/>
		<polygon class="st2" points="300.31,56.39 321.44,151.72 316.38,151.72 295.25,56.39 		"/>
	</g>
</g>
<g id="XMLID_4_">
	<g>
		<path d="M425.72,126.06v14.3c0,4.07-2.52,7.52-7.58,10.37c-2.85,1.61-6.08,2.76-9.69,3.46l-0.14-2.47c5.46-2.2,8.2-5.21,8.2-9.05
			V127.6c0-4.81-1.91-9.06-5.73-12.75l-23.04-22.29c-3.82-3.7-5.73-7.95-5.73-12.76V65.01c0-2.76,1.01-5.05,3.03-6.87
			c-1.27,0.54-2.38,1.12-3.34,1.75l-2.24-1.98c0.3-0.18,0.6-0.36,0.92-0.54c5.06-2.85,11.37-4.28,18.94-4.28c0.01,0,0.03,0,0.04,0
			l-0.04,2.6c-5.4,0-8.1,1.91-8.1,5.74v16.83c0,4.72,1.84,8.88,5.51,12.47l23.04,22.36C423.74,116.97,425.72,121.29,425.72,126.06z"
			/>
		<path d="M425.72,67.74v16.19H411.9v-2.52h4.61V65.43c0-3.83-2.74-6.85-8.2-9.04l0.14-2.48c3.61,0.7,6.84,1.86,9.69,3.46
			C423.2,60.22,425.72,63.68,425.72,67.74z"/>
		<path class="st2" d="M416.51,127.6v15.07c0,3.84-2.74,6.85-8.2,9.05c2.39-1.78,3.59-4.12,3.59-7.01V128.3
			c0-4.81-1.91-9.06-5.73-12.75l-23.04-22.22c-3.82-3.74-5.73-8.02-5.73-12.83V66.76c0-2.7,1.43-4.99,4.3-6.87
			c0.96-0.63,2.07-1.21,3.34-1.75c-2.02,1.82-3.03,4.11-3.03,6.87V79.8c0,4.81,1.91,9.06,5.73,12.76l23.04,22.29
			C414.6,118.54,416.51,122.79,416.51,127.6z"/>
		<path class="st2" d="M416.51,65.43v15.98h-4.61V63.47c0-2.95-1.2-5.31-3.59-7.08C413.77,58.58,416.51,61.6,416.51,65.43z"/>
		<path d="M411.9,128.3v16.41c0,2.89-1.2,5.23-3.59,7.01l0.14,2.47c-2.81,0.55-5.86,0.82-9.13,0.82c-0.01,0-0.03,0-0.04,0l0.04-2.59
			c5.31,0,7.97-1.92,7.97-5.75v-17.45c0-4.77-1.83-8.95-5.5-12.55l-23.04-22.36c-3.97-3.88-5.96-8.18-5.96-12.9V67.74
			c0-3.81,2.22-7.09,6.67-9.83l2.24,1.98c-2.87,1.88-4.3,4.17-4.3,6.87V80.5c0,4.81,1.91,9.09,5.73,12.83l23.04,22.22
			C409.99,119.24,411.9,123.49,411.9,128.3z"/>
		<path d="M411.9,81.41v2.52h-4.61v-22.5c0-3.83-2.66-5.74-7.97-5.74l0.04-2.6c3.26,0,6.29,0.28,9.09,0.82l-0.14,2.48
			c2.39,1.77,3.59,4.13,3.59,7.08V81.41z"/>
		<path d="M399.32,152.42l-0.04,2.59c-7.55-0.01-13.85-1.43-18.9-4.28c-5.06-2.85-7.59-6.3-7.59-10.37v-16.19h18.43v22.5
			C391.22,150.5,393.92,152.42,399.32,152.42z M385.04,150.03c-2.02-1.82-3.03-4.13-3.03-6.94v-16.33h-4.61v14.65
			C377.4,144.96,379.95,147.84,385.04,150.03z"/>
		<path class="st2" d="M382.01,143.09c0,2.81,1.01,5.12,3.03,6.94c-5.09-2.19-7.64-5.07-7.64-8.62v-14.65h4.61V143.09z"/>
	</g>
</g>
</svg>
